<?xml version="1.0" encoding="UTF-8" standalone="no"?>
<!-- Created with Inkscape (http://www.inkscape.org/) -->
<svg
   xmlns:svg="http://www.w3.org/2000/svg"
   xmlns="http://www.w3.org/2000/svg"
   version="1.0"
   width="240.00159"
   height="54.428001"
   id="svg3958">
  <defs
     id="defs3960" />
  <g
     transform="scale(8.3995957e-2,8.3995957e-2)"
     id="g4892">
    <g
       transform="translate(1.5,1.15625)"
       id="g3256">
      <path
         d="M 2792.4751,79.618057 C 2803.113,79.618182 2813.4991,82.361669 2823.6333,87.848526 C 2833.7673,93.279627 2841.6618,101.09017 2847.3169,111.28017 C 2852.9717,121.41436 2855.7992,131.99639 2855.7993,143.02626 C 2855.7992,153.94428 2852.9997,164.44232 2847.4009,174.5204 C 2841.8578,184.59855 2834.0473,192.43708 2823.9692,198.03603 C 2813.947,203.579 2803.449,206.35048 2792.4751,206.35048 C 2781.5011,206.35048 2770.9751,203.579 2760.897,198.03603 C 2750.8748,192.43708 2743.0643,184.59855 2737.4653,174.5204 C 2731.8664,164.44232 2729.0669,153.94428 2729.0669,143.02626 C 2729.0669,131.99639 2731.8944,121.41436 2737.5493,111.28017 C 2743.2602,101.09017 2751.1828,93.279627 2761.3169,87.848526 C 2771.451,82.361669 2781.837,79.618182 2792.4751,79.618057"
         id="path3254"
         style="font-size:172px;font-style:normal;font-variant:normal;font-weight:normal;font-stretch:normal;text-align:start;line-height:100%;writing-mode:lr-tb;text-anchor:start;fill:#000000;fill-opacity:1;stroke:none;stroke-width:1px;stroke-linecap:butt;stroke-linejoin:miter;stroke-opacity:1;font-family:Arial;-inkscape-font-specification:Arial" />
      <path
         d="M 2792.4751,90.116104 C 2783.5727,90.116219 2774.8943,92.411789 2766.4399,97.002823 C 2758.0415,101.53808 2751.4627,108.06086 2746.7036,116.57118 C 2741.9445,125.02569 2739.5649,133.84404 2739.5649,143.02626 C 2739.5649,152.15262 2741.8885,160.91498 2746.5356,169.31337 C 2751.2387,177.65584 2757.7895,184.17862 2766.188,188.88173 C 2774.5864,193.52888 2783.3487,195.85244 2792.4751,195.85243 C 2801.6013,195.85244 2810.3637,193.52888 2818.7622,188.88173 C 2827.1605,184.17862 2833.6833,177.65584 2838.3306,169.31337 C 2842.9776,160.91498 2845.3012,152.15262 2845.3013,143.02626 C 2845.3012,133.84404 2842.9216,125.02569 2838.1626,116.57118 C 2833.4594,108.06086 2826.8806,101.53808 2818.4263,97.002823 C 2809.9718,92.411789 2801.3214,90.116219 2792.4751,90.116104"
         id="path3252"
         style="font-size:172px;font-style:normal;font-variant:normal;font-weight:normal;font-stretch:normal;text-align:start;line-height:100%;writing-mode:lr-tb;text-anchor:start;fill:#ffffff;fill-opacity:1;stroke:none;stroke-width:1px;stroke-linecap:butt;stroke-linejoin:miter;stroke-opacity:1;font-family:Arial;-inkscape-font-specification:Arial" />
      <path
         d="M 2764.6763,178.04774 L 2764.6763,109.85243 L 2788.1079,109.85243 C 2796.1144,109.85253 2801.9093,110.49641 2805.4927,111.78407 C 2809.0759,113.01594 2811.9314,115.19953 2814.0591,118.33485 C 2816.1866,121.47035 2817.2504,124.80173 2817.2505,128.32899 C 2817.2504,133.31214 2815.4587,137.65133 2811.8755,141.34657 C 2808.3481,145.04195 2803.6449,147.11356 2797.7661,147.56142 C 2800.1736,148.56929 2802.1052,149.77306 2803.561,151.17274 C 2806.3044,153.8603 2809.6638,158.36745 2813.6392,164.69423 L 2821.9536,178.04774 L 2808.5161,178.04774 L 2802.4692,167.29774 C 2797.7101,158.84336 2793.8748,153.55235 2790.9634,151.4247 C 2788.9477,149.85704 2786.0082,149.07319 2782.145,149.07314 L 2775.6782,149.07314 L 2775.6782,178.04774 L 2764.6763,178.04774"
         id="path3250"
         style="font-size:172px;font-style:normal;font-variant:normal;font-weight:normal;font-stretch:normal;text-align:start;line-height:100%;writing-mode:lr-tb;text-anchor:start;fill:#000000;fill-opacity:1;stroke:none;stroke-width:1px;stroke-linecap:butt;stroke-linejoin:miter;stroke-opacity:1;font-family:Arial;-inkscape-font-specification:Arial" />
      <path
         d="M 2775.6782,139.66689 L 2789.0317,139.66689 C 2795.4145,139.66695 2799.7537,138.71513 2802.0493,136.81142 C 2804.4008,134.90784 2805.5766,132.38831 2805.5767,129.25282 C 2805.5766,127.23728 2805.0167,125.44561 2803.897,123.87782 C 2802.7771,122.25421 2801.2094,121.05043 2799.1938,120.26649 C 2797.2341,119.48273 2793.5668,119.0908 2788.1919,119.09071 L 2775.6782,119.09071 L 2775.6782,139.66689"
         id="text3243"
         style="font-size:172px;font-style:normal;font-variant:normal;font-weight:normal;font-stretch:normal;text-align:start;line-height:100%;writing-mode:lr-tb;text-anchor:start;fill:#ffffff;fill-opacity:1;stroke:none;stroke-width:1px;stroke-linecap:butt;stroke-linejoin:miter;stroke-opacity:1;font-family:Arial;-inkscape-font-specification:Arial" />
    </g>
    <g
       transform="translate(1.5,1.15625)"
       id="g3411">
      <path
         d="M 840.00045,645.00028 C 838.92475,644.33546 838.47917,187.65174 839.55252,185.91502 C 839.88832,185.37169 880.09181,185 938.52383,185 C 1031.2779,185 1036.9747,185.10051 1037.7148,186.75 C 1038.1467,187.7125 1038.275,265.9 1038,360.5 C 1037.4513,549.25281 1038.0509,530.52463 1031.8213,553.5 C 1030.6283,557.9 1028.8856,563.075 1027.9486,565 C 1027.0117,566.925 1025.1576,570.75 1023.8284,573.5 C 1015.6298,590.46243 1000.8163,607.48326 985.61401,617.40865 C 975.45271,624.04285 968.36973,628.13129 964.5,629.59608 C 930.29413,642.54388 921.86743,644.05966 881,644.61596 C 865.325,644.82934 849.91562,645.14402 846.75694,645.31526 C 843.59826,645.48651 840.55784,645.34476 840.00045,645.00028 z"
         id="path2405"
         style="fill:#000000" />
      <path
         d="M 728,643.96402 C 692.35854,641.16872 655.38723,625.86458 634.5,605.26002 C 614.57456,585.60424 602.27441,560.38479 598.03768,530.5 C 597.41394,526.1003 597.03263,460.93152 597.0112,355.0661 C 596.98396,220.56342 597.23121,186.47088 598.23854,185.83141 C 599.8816,184.78838 793.10964,184.78277 794.75223,185.82571 C 795.7492,186.45872 796.00576,233.15353 796.01084,414.89196 C 796.01435,540.4411 795.76179,643.57642 795.44959,644.08156 C 794.78317,645.15986 742.07644,645.06801 728,643.96402 z"
         id="path2401"
         style="fill:#000000" />
    </g>
    <g
       transform="translate(1.5,1.15625)"
       id="g3415">
      <path
         d="M 2001.5,646.27584 C 1989.5181,645.11373 1968.0047,640.96042 1962,638.65007 C 1960.075,637.90942 1955.35,636.27758 1951.5,635.02376 C 1944.0537,632.59874 1941.8062,631.70566 1932.8119,627.59784 C 1929.6835,626.16903 1926.7939,625 1926.3907,625 C 1925.9874,625 1924.947,624.38807 1924.0787,623.64016 C 1923.2104,622.89225 1919.8,620.82481 1916.5,619.04585 C 1910.9407,616.04894 1908.0538,614.20241 1894.5,604.97388 C 1881.3297,596.00647 1859.6159,574.74242 1847.5347,558.9813 C 1831.4168,537.95387 1816.9365,510.98092 1811.4835,491.8274 C 1810.7518,489.25747 1809.7165,486.33247 1809.1828,485.3274 C 1806.1474,479.61122 1800.0498,448.47958 1799.4235,435.5 C 1799.1846,430.55 1798.7967,423.8 1798.5615,420.5 C 1797.4548,404.97403 1801.1009,369.02616 1805.5199,351.89384 C 1816.2082,310.456 1841.1192,267.58114 1870.2249,240.52858 C 1905.6544,207.59832 1948.8887,187.12137 1997.201,180.38929 C 2012.6364,178.23844 2014.2401,178.09196 2016.25,178.64941 C 2017.9094,179.10965 2018,189.75975 2018,384.37626 C 2018,560.1193 2018.2041,589.89673 2019.4203,591.55887 C 2020.7319,593.35137 2022.091,593.49176 2037.1703,593.39242 C 2070.8115,593.17079 2109.5515,585.41751 2146.6732,571.47692 C 2156.1999,567.89928 2159.0679,566.60066 2178.0521,557.26854 C 2193.2451,549.80005 2198.7449,546.58873 2215.9609,535.13356 C 2225.0851,529.06251 2243.0191,514.37404 2251.7308,505.83703 C 2257.5494,500.13507 2260.4425,497.95583 2261.6027,498.40103 C 2262.8434,498.87714 2263.0921,499.78952 2262.6219,502.1404 C 2262.2799,503.85068 2262,516.47858 2262,530.2024 L 2262,555.15481 L 2251.75,565.42451 C 2246.1125,571.07284 2237.225,579.05212 2232,583.15625 C 2223.2231,590.05033 2199.8576,606 2198.5351,606 C 2198.2189,606 2196.0567,607.21085 2193.7301,608.69077 C 2189.4824,611.39273 2170.5448,621 2169.4665,621 C 2169.1496,621 2167.0025,621.84922 2164.6951,622.88716 C 2140.2063,633.90337 2106.2031,642.54189 2075.5,645.54726 C 2062.667,646.80342 2012.0753,647.30152 2001.5,646.27584 z"
         id="path2409"
         style="fill:#000000" />
      <path
         d="M 2051.9997,416.16667 C 2050.391,415.63029 2050.6402,179.29696 2052.25,178.71407 C 2055.1435,177.66638 2090.674,181.49796 2103,184.18691 C 2123.2881,188.61281 2135.3047,192.65783 2152.2625,200.76967 C 2185.1699,216.51107 2210.2335,238.80797 2228.9592,269 C 2242.6323,291.04565 2254.0943,321.13407 2258.6726,347 C 2259.5001,351.675 2260.5797,357.75 2261.0717,360.5 C 2261.5637,363.25 2262.2658,376.62591 2262.632,390.22424 C 2263.1896,410.92908 2263.0704,415.03563 2261.8989,415.48457 C 2260.4053,416.05693 2053.6853,416.7287 2051.9997,416.16667 z"
         id="path2393"
         style="fill:#000000" />
    </g>
    <g
       transform="translate(1.5,1.15625)"
       id="g3403">
      <path
         d="M 2696.4601,281.76181 A 95.186676,95.186676 0 1 1 2506.0868,281.76181 A 95.186676,95.186676 0 1 1 2696.4601,281.76181 z"
         id="path3364"
         style="opacity:1;fill:#000000;fill-opacity:1;fill-rule:evenodd;stroke:none;stroke-width:0.5;stroke-miterlimit:4;stroke-dasharray:none;stroke-opacity:1" />
      <rect
         width="198.60036"
         height="462.67337"
         x="2291.5425"
         y="182.78142"
         id="rect3368"
         style="opacity:1;fill:#000000;fill-opacity:1;fill-rule:evenodd;stroke:none;stroke-width:0.5;stroke-miterlimit:4;stroke-dasharray:none;stroke-opacity:1" />
    </g>
    <path
       d="M 0,-2.220446e-16 L 0,645.78125 L 248.71875,645.78125 L 248.71875,329.625 L 304.1875,329.625 L 304.1875,645.78125 L 552.90625,645.78125 L 552.90625,-2.220446e-16 L 304.1875,-2.220446e-16 L 304.1875,262.21875 L 248.71875,262.21875 L 248.71875,-2.220446e-16 L 0,-2.220446e-16 z"
       id="rect3370"
       style="fill:#000000;fill-opacity:1;fill-rule:evenodd;stroke:none;stroke-width:0.5;stroke-miterlimit:4;stroke-opacity:1" />
    <g
       transform="translate(1.5,1.15625)"
       id="g3407">
      <path
         d="M 1321.5504,644.08156 C 1321.2382,643.57642 1320.9856,540.4411 1320.9892,414.89196 C 1320.9942,233.1863 1321.251,186.44611 1322.2478,185.76447 C 1322.9365,185.29349 1340.15,185.08691 1360.5,185.30539 C 1393.4925,185.65961 1398.6514,185.93677 1408.1307,187.86438 C 1418.1522,189.90224 1432.163,193.88646 1441.7894,197.43578 C 1459.5104,203.96965 1482.3379,219.7844 1493.5925,233 C 1499.6845,239.95162 1500.2955,240.88233 1503.6468,246.61045 C 1509.9454,256.79535 1515.2781,268.13774 1519.138,282 C 1524.5165,301.31637 1524.2851,293.60668 1524.915,474.5 C 1525.2367,566.9 1525.3394,643.0625 1525.143,643.75 C 1524.8604,644.73943 1503.6622,645 1423.452,645 C 1362.9738,645 1321.8892,644.6297 1321.5504,644.08156 z"
         id="path2397"
         style="fill:#000000;fill-opacity:1;stroke:none;stroke-opacity:1" />
      <rect
         width="199.58244"
         height="461.18204"
         x="1079.0983"
         y="183.14516"
         id="rect3390"
         style="opacity:1;fill:#000000;fill-opacity:1;fill-rule:evenodd;stroke:none;stroke-width:0.5;stroke-miterlimit:4;stroke-dasharray:none;stroke-opacity:1" />
    </g>
    <path
       d="M 1764.3125,4.875 L 1753.6562,15.84375 L 1503.3125,239.46875 L 1570.8438,239.46875 L 1570.8438,647.125 L 1764.3125,647.125 L 1764.3125,240.03125 L 1845.6562,240.03125 L 1845.6562,191.1875 L 1764.375,191.1875 L 1764.375,6.28125 L 1764.3125,6.34375 L 1764.3125,4.875 z"
       id="rect3392"
       style="opacity:1;fill:#000000;fill-opacity:1;fill-rule:evenodd;stroke:none;stroke-width:0.4827832;stroke-miterlimit:4;stroke-dasharray:none;stroke-opacity:1" />
  </g>
</svg>
